/* XPM */
static char *_1ba66701e444104d08a069768a56230ZKbuzY8KUOtTn46W[] = {
/* columns rows colors chars-per-pixel */
"24 24 220 2 ",
"   c None",
".  c #320013",
"X  c #50000F",
"o  c #55000C",
"O  c #400016",
"+  c #460016",
"@  c #490015",
"#  c #420018",
"$  c #47001A",
"%  c #490018",
"&  c #48001A",
"*  c #4E001A",
"=  c #4C001F",
"-  c #540014",
";  c #590015",
":  c #520019",
">  c #570019",
",  c #50001C",
"<  c #55001D",
"1  c #5A0019",
"2  c #5D001A",
"3  c #5F041B",
"4  c #6B020E",
"5  c #730701",
"6  c #750C01",
"7  c #730A06",
"8  c #7B1406",
"9  c #75120C",
"0  c #7D1609",
"q  c #7D140A",
"w  c #7A140D",
"e  c #7F1B08",
"r  c #6E0D17",
"t  c #630319",
"y  c #60001C",
"u  c #67071C",
"i  c #64071F",
"p  c #6D071B",
"a  c #750F10",
"s  c #70031C",
"d  c #7A1217",
"f  c #791515",
"g  c #7B1813",
"h  c #7B1917",
"j  c #73111A",
"k  c #73111E",
"l  c #79161A",
"z  c #7A181A",
"x  c #7F1B19",
"c  c #7F1C1F",
"v  c #480020",
"b  c #5A0122",
"n  c #5C0523",
"m  c #610123",
"M  c #690820",
"N  c #6A0B20",
"B  c #6A0C21",
"V  c #6F0C21",
"C  c #690A24",
"Z  c #6C1420",
"A  c #701426",
"S  c #711526",
"D  c #761625",
"F  c #751726",
"G  c #701822",
"H  c #751C22",
"J  c #771825",
"K  c #7D1B21",
"L  c #791E22",
"P  c #7C1E22",
"I  c #7C1A27",
"U  c #711528",
"Y  c #781028",
"T  c #7E2022",
"R  c #7C2723",
"E  c #7F2622",
"W  c #7C2428",
"Q  c #821D02",
"!  c #851E01",
"~  c #831709",
"^  c #831E09",
"/  c #851F0A",
"(  c #811C11",
")  c #821E14",
"_  c #841E17",
"`  c #811C1D",
"'  c #841E1E",
"]  c #88191D",
"[  c #862007",
"{  c #8D2300",
"}  c #892106",
"|  c #892107",
" . c #892207",
".. c #872009",
"X. c #86230E",
"o. c #892109",
"O. c #892208",
"+. c #89220C",
"@. c #8E2A0C",
"#. c #902B0B",
"$. c #962E08",
"%. c #97330E",
"&. c #872010",
"*. c #872211",
"=. c #832016",
"-. c #862015",
";. c #8A2317",
":. c #8C2714",
">. c #872118",
",. c #85201A",
"<. c #85201E",
"1. c #8B2B1D",
"2. c #8B331F",
"3. c #983613",
"4. c #9A3613",
"5. c #92351E",
"6. c #97361E",
"7. c #9F3E19",
"8. c #99391C",
"9. c #A13C15",
"0. c #801C21",
"q. c #801C24",
"w. c #801E25",
"e. c #822924",
"r. c #862925",
"t. c #842A26",
"y. c #862728",
"u. c #952D21",
"i. c #8B3526",
"p. c #8F3527",
"a. c #8F3A23",
"s. c #8F3128",
"d. c #8D342B",
"f. c #903020",
"g. c #923520",
"h. c #913621",
"j. c #903226",
"k. c #96362B",
"l. c #983929",
"z. c #993E29",
"x. c #8D3A31",
"c. c #A13A21",
"v. c #9E4212",
"b. c #A6430F",
"n. c #A14011",
"m. c #AE4710",
"M. c #AE4611",
"N. c #AF4D17",
"B. c #AB4D19",
"V. c #AD4F19",
"C. c #AB481D",
"Z. c #AC5519",
"A. c #B75816",
"S. c #B65917",
"D. c #B7551D",
"F. c #B8521A",
"G. c #9C4329",
"H. c #9F422B",
"J. c #98462F",
"K. c #9F4232",
"L. c #9E493A",
"P. c #B24A24",
"I. c #A54E30",
"U. c #AA5336",
"Y. c #B25236",
"T. c #B05C3A",
"R. c #BC6722",
"E. c #B66534",
"W. c #BB6534",
"Q. c #BD633A",
"!. c #C3641B",
"~. c #C2661F",
"^. c #D16D1B",
"/. c #C95F32",
"(. c #C76E25",
"). c #CA6921",
"_. c #C47B2F",
"`. c #CC7B2D",
"'. c #D37D2A",
"]. c #D47E2B",
"[. c #C26737",
"{. c #C66935",
"}. c #C36D37",
"|. c #CA6A30",
" X c #C06F38",
".X c #CE7734",
"XX c #C9793F",
"oX c #CB7B3E",
"OX c #D27838",
"+X c #D77F3D",
"@X c #BC7643",
"#X c #C98A32",
"$X c #D88230",
"%X c #D4843F",
"&X c #DA803C",
"*X c #DB993E",
"=X c #E08730",
"-X c #E18A37",
";X c #E38E3F",
":X c #ED8B38",
">X c #EB9737",
",X c #EF9535",
"<X c #E8933A",
"1X c #E8963A",
"2X c #EE9A3D",
"3X c #F19D35",
"4X c #F5A13F",
"5X c #F7A839",
"6X c #CC8243",
"7X c #D78543",
"8X c #D28E49",
"9X c #E09C47",
"0X c #ED9D46",
"qX c #F7A746",
"wX c #FBA146",
"eX c #FFAE4B",
"rX c #EDAC56",
"tX c #F8B455",
"yX c #FFD663",
"uX c #FFFF72",
/* pixels */
"Z.#X                                            ",
"`.uXP.5                                         ",
"  OX8XT q                                       ",
"  4 rX9X1 w   } O.                              ",
"  q B e.s.D ( { ;.-.                            ",
"    u + 7X.X2 )   ;.0.^                         ",
"    f = U.3X6 J `   &.e._                       ",
"    ^ m M ;X    c ,.  ..q.0.&.                  ",
"      k * XX'.    +.}   O.' I ` O.              ",
"      g b J.1X              &.K D l }           ",
"      e S t 7XS.                =.R L :.        ",
"        z y T.].                  %.i.R g.4.    ",
"        a C j.-X    3.#.            n.a.Z H 5.n.",
"        ..V 3 &X    K.t.$.        m.8.M % > 6X(.",
"          z = k.^.9 n i.8.      D.j.< O y.|.N.  ",
"          *.Z , t.M % j G.@.     X# $ I.,X      ",
"          Q l.G . , p z.e.j.  ). X@ U =X        ",
"            1.x.- ; 9.5XW.P 8 ~.XX- Y C.        ",
"            7 @Xd.s F.  1X[.a Q $XG.o +XA.      ",
"              E.L.]       4XQ.~   2Xf.u.<X      ",
"              7.Y.9.        wXtX    qXd {.~.    ",
"                M.            *X    V.0X/.:X    ",
"                                      B.eXyXR.  ",
"                                        v._.    "
};
